<?xml version="1.0" encoding="UTF-8"?>
<svg width="209px" height="36px" viewBox="0 0 209 36" version="1.1" xmlns="http://www.w3.org/2000/svg" xmlns:xlink="http://www.w3.org/1999/xlink">
    <!-- Generator: Sketch 59.1 (86144) - https://sketch.com -->
    <title>logo/color</title>
    <desc>Created with Sketch.</desc>
    <defs>
        <polygon id="path-1" points="0.000844815466 0.287302041 18.8317815 0.287302041 18.8317815 23.877551 0.000844815466 23.877551"></polygon>
        <polygon id="path-3" points="0.206098243 0.335718367 17.9295554 0.335718367 17.9295554 23.7955959 0.206098243 23.7955959"></polygon>
    </defs>
    <g id="Home" stroke="none" stroke-width="1" fill="none" fill-rule="evenodd">
        <g id="Desktop---Homepage---1920-signin" transform="translate(-32.000000, -22.000000)">
            <g id="logo/color" transform="translate(32.000000, 22.000000)">
                <g id="mab-logo-full">
                    <g id="Group" transform="translate(0.000000, -0.000037)">
                        <polygon id="Fill-1" fill="#00819E" points="5.80696766 0 5.80696766 5.8077551 11.6141557 11.6155102 11.6141557 5.8077551 11.6141557 0"></polygon>
                        <polygon id="Fill-2" fill="#77C045" points="-5.5067062e-14 5.80786531 -5.5067062e-14 11.6152531 5.80682074 11.6152531 11.6143761 11.6152531 5.80682074 5.80786531"></polygon>
                        <polygon id="Fill-3" fill="#00597C" points="17.4215641 5.80786531 11.6143761 0.00047755102 11.6143761 5.80786531 17.4215641 11.6152531 23.2283849 5.80786531 23.2283849 0.00047755102"></polygon>
                        <polygon id="Fill-4" fill="#77C045" points="29.035426 5.80779184 23.228238 11.6155469 29.035426 11.6155469 34.8426141 11.6155469 34.8426141 5.80779184"></polygon>
                        <polygon id="Fill-5" fill="#00819D" points="23.2285318 0 23.2285318 5.8077551 23.2285318 11.6155102 29.0357199 5.8077551 29.0357199 0"></polygon>
                        <polygon id="Fill-6" fill="#2BA849" points="-5.5067062e-14 11.6157306 5.80682074 17.4231184 -5.5067062e-14 23.2308735 5.80682074 23.2308735 11.6143761 17.4231184 5.80682074 11.6157306"></polygon>
                        <polygon id="Fill-7" fill="#77C045" points="5.80696766 23.2308 0.000146924429 23.2308 0.000146924429 29.0381878 5.80696766 29.0381878 11.6141557 23.2308"></polygon>
                        <polygon id="Fill-8" fill="#00819E" points="5.80711459 29.038702 5.80711459 34.8460898 11.6143026 34.8460898 11.6143026 29.038702 11.6143026 23.2309469"></polygon>
                        <polygon id="Fill-9" fill="#2BA849" points="34.8426508 11.6155469 29.0354627 11.6155469 23.2282747 17.4229347 29.0354627 23.2310571 34.8426508 23.2310571 29.0354627 17.4229347"></polygon>
                        <polygon id="Fill-10" fill="#00597C" points="17.4215274 23.2309469 11.6139721 29.0383347 11.6139721 34.8460898 17.4215274 29.0383347 23.2283482 34.8460898 23.2283482 29.0383347"></polygon>
                        <polygon id="Fill-11" fill="#00819E" points="23.2283849 23.2309469 23.2283849 29.0383347 23.2283849 34.8460898 29.0359402 34.8460898 29.0359402 29.0383347"></polygon>
                        <polygon id="Fill-12" fill="#77C045" points="29.035426 23.2309469 23.228238 23.2309469 29.035426 29.0383347 34.8426141 29.0383347 34.8426141 23.2309469"></polygon>
                    </g>
                    <g id="Group-35" transform="translate(40.036907, 4.735837)">
                        <path d="M15.1798279,23.7955959 L15.1798279,21.8078816 L17.818958,21.3523714 L17.818958,14.8672286 C17.818958,12.2289429 17.8516487,9.03596327 17.9166627,7.82996327 L17.8516487,7.82996327 C17.2973763,9.03596327 15.7664237,12.1628204 14.3324413,14.7706163 L12.8991935,17.5396776 L11.2378455,17.5396776 L9.80386309,14.7706163 C8.27291054,11.8707796 6.7089,8.77514694 6.28539033,7.82996327 L6.22037627,7.82996327 C6.28539033,9.03596327 6.31844833,12.2289429 6.31844833,14.9006571 L6.31844833,21.3523714 L8.98953445,21.8078816 L8.98953445,23.7955959 L0.192801582,23.7955959 L0.192801582,21.8078816 L2.86462232,21.3523714 L2.86462232,4.08265714 L0.192801582,3.62641224 L0.192801582,1.63869796 L5.9922761,1.63869796 L8.72874359,6.91747347 C10.1300353,9.62188163 11.5305924,12.3920449 12.0194835,13.5322898 L12.0844975,13.5322898 C12.5733886,12.3589837 13.9739457,9.55649388 15.4079281,6.91747347 L18.1120722,1.63869796 L23.9435028,1.63869796 L23.9435028,3.62641224 L21.2724167,4.08265714 L21.2724167,21.3523714 L23.9435028,21.8078816 L23.9435028,23.7955959 L15.1798279,23.7955959 Z" id="Fill-13" fill="#00597C"></path>
                        <path d="M33.8775409,16.4644163 C32.5746886,16.3663347 30.9779873,16.0412327 30.1636587,16.0412327 C28.7300436,16.0412327 27.6552914,16.7898857 27.6552914,18.9410694 C27.6552914,20.5371918 28.4369293,21.7431918 30.2613634,21.7431918 C31.4668784,21.7431918 31.8580647,21.3523347 33.8775409,20.244049 L33.8775409,16.4644163 Z M36.2235568,23.8605796 L34.5291508,23.8605796 L34.1060084,22.1663755 L34.0409944,22.1663755 C31.825374,23.5351102 31.0756921,24.1537224 29.3820207,24.1537224 C26.7755814,24.1537224 24.4622562,22.6556816 24.4622562,19.1688245 C24.4622562,15.4542122 26.5798046,13.9881306 29.2189346,13.9881306 C30.6194917,13.9881306 32.1835023,14.476702 33.8775409,14.5744163 L33.8775409,12.8478857 C33.8775409,10.6000898 32.9004935,9.98037551 30.8479592,9.98037551 C30.0336306,9.98037551 28.8608063,10.208498 27.980729,10.5339673 L27.5902773,12.3262531 L25.4719944,12.3262531 L25.4719944,8.51392653 C27.5572193,7.86262041 29.251258,7.34098776 31.336483,7.34098776 C35.701975,7.34098776 37.1682808,9.42604898 37.1682808,12.6847837 L37.1682808,19.8855184 C37.1682808,20.3090694 37.2332949,20.8957224 37.2990436,21.2538857 L39.8401016,21.5797224 L39.8401016,23.3393143 L36.2235568,23.8605796 Z" id="Fill-15" fill="#00597C"></path>
                        <path d="M47.6291165,10.0780163 C46.2289267,10.0780163 44.7953116,11.5771592 44.012939,12.5873633 L44.012939,19.5599755 C44.6976069,20.4067102 46.2935735,21.3522612 47.4663977,21.3522612 C49.8777949,21.3522612 51.6695383,19.6900163 51.6695383,15.7480163 C51.6695383,11.7395265 50.1705418,10.0780163 47.6291165,10.0780163 M48.1833889,24.153649 C46.4562923,24.153649 44.7295629,23.1768735 43.8175295,22.2313224 L43.7521482,22.2313224 L43.6224873,23.7954857 L40.7229337,23.7954857 L40.7229337,3.04038367 L38.051113,2.8449551 L38.051113,0.954955102 L42.3189004,0.335608163 L44.012939,0.335608163 L44.012939,9.88222041 L44.0786877,9.88222041 C45.1538072,8.74234286 46.553997,7.27626122 48.5415172,7.27626122 C52.8423626,7.27626122 55.0576156,10.3065061 55.0576156,15.7480163 C55.0576156,20.9610367 52.3531042,24.153649 48.1833889,24.153649" id="Fill-17" fill="#00597C"></path>
                        <path d="M65.5163576,12.5873633 L65.1251714,10.2734449 C64.9297619,10.1757306 64.7016617,10.1437714 64.278152,10.1437714 C62.9091837,10.1437714 61.5743752,11.4140571 60.9550888,13.4671592 L60.9550888,21.3522612 L63.9523471,21.8077714 L63.9523471,23.7954857 L54.9932627,23.7954857 L54.9932627,21.8077714 L57.6643489,21.3522612 L57.6643489,10.3384653 L54.9932627,10.1437714 L54.9932627,8.22107755 L59.2610501,7.63405714 L60.5639025,7.63405714 L60.6616072,10.5342612 L60.7273559,10.5342612 C61.0854842,8.93777143 62.6821854,7.34091429 64.5712663,7.34091429 C65.6463858,7.34091429 66.6234332,7.66675102 67.4708199,8.15605714 L67.4708199,12.5873633 L65.5163576,12.5873633 Z" id="Fill-19" fill="#00597C"></path>
                        <path d="M78.4893439,14.0205306 C78.4893439,11.6096327 77.283829,9.65461224 74.7754617,9.65461224 C72.559474,9.65461224 70.9308167,11.4142041 70.7027165,14.0528571 L78.4893439,14.0528571 L78.4893439,14.0205306 Z M70.6700258,16.2036735 C70.6700258,19.6578367 72.7225601,21.5147755 75.4263369,21.5147755 C77.316887,21.5147755 78.587416,21.2216327 79.9879731,20.8307755 L80.5745689,23.3720816 C79.0428817,23.7956327 77.6096339,24.0891429 75.4920856,24.0891429 C70.2465162,24.0891429 67.5750627,20.9611837 67.5750627,15.6173878 C67.5750627,10.4043673 70.4419257,7.27567347 74.7754617,7.27567347 C79.2386585,7.27567347 81.3238835,10.1108571 81.3238835,15.4212245 L81.3238835,16.2036735 L70.6700258,16.2036735 Z" id="Fill-21" fill="#00597C"></path>
                        <g id="Group-25" transform="translate(80.808436, 7.346939)">
                            <mask id="mask-2" fill="white">
                                <use xlink:href="#path-1"></use>
                            </mask>
                            <g id="Clip-24"></g>
                            <path d="M12.1206409,13.7443224 C10.915126,16.6764857 9.44918752,19.2177918 7.95019104,20.7499959 L4.79021388,23.8775878 L2.90039842,21.9548939 L5.08369543,19.6417102 C6.09343357,18.5988122 6.81005747,17.6870571 7.55973937,16.1552204 L2.412242,2.69930204 L0.000844815466,2.3077102 L0.000844815466,0.287302041 L7.88480967,0.287302041 L7.88480967,2.43848571 L5.76799596,2.69930204 L7.33127188,7.09754694 C8.04789578,9.08526122 8.99261986,11.9524041 9.38417346,13.3534653 L9.44918752,13.3534653 C9.87232988,11.9524041 10.8497446,9.05293469 11.5674705,7.06411837 L13.1303791,2.73126122 L11.0131981,2.43848571 L11.0131981,0.287302041 L18.8317815,0.287302041 L18.8317815,2.3077102 L16.3887956,2.69930204 L12.1206409,13.7443224 Z" id="Fill-23" fill="#00597C" mask="url(#mask-2)"></path>
                        </g>
                        <path d="M105.635028,20.8959061 L110.22862,20.8959061 C112.607327,20.8959061 113.94287,19.3644367 113.94287,17.0508857 C113.94287,14.9008041 112.346536,13.3693347 110.130915,13.3693347 L105.635028,13.3693347 L105.635028,20.8959061 Z M105.635028,10.6645592 L109.674715,10.6645592 C111.759573,10.6645592 112.900074,9.10039592 112.900074,7.43851837 C112.900074,5.61464082 111.532207,4.34362041 109.34891,4.34362041 L105.635028,4.34362041 L105.635028,10.6645592 Z M102.181202,4.08243673 L99.5097485,3.62655918 L99.5097485,1.63921224 L109.544687,1.63921224 C113.715137,1.63921224 116.223504,4.01741633 116.223504,7.24382449 C116.223504,9.19847755 115.278046,10.5672122 113.812474,11.6424367 L113.812474,11.7070898 C115.994669,12.8480694 117.460975,14.6396204 117.460975,17.2466816 C117.460975,21.0582735 115.213031,23.7957429 110.55516,23.7957429 L99.5097485,23.7957429 L99.5097485,21.8083959 L102.181202,21.352151 L102.181202,4.08243673 Z" id="Fill-26" fill="#00597C"></path>
                        <path d="M127.821829,16.4644163 C126.518609,16.3663347 124.922275,16.0412327 124.107579,16.0412327 C122.674331,16.0412327 121.599947,16.7898857 121.599947,18.9410694 C121.599947,20.5371918 122.38085,21.7431918 124.205651,21.7431918 C125.411166,21.7431918 125.801985,21.3523347 127.821829,20.244049 L127.821829,16.4644163 Z M130.167845,23.8605796 L128.473439,23.8605796 L128.050296,22.1663755 L127.984915,22.1663755 C125.769662,23.5351102 125.01998,24.1537224 123.325941,24.1537224 C120.719869,24.1537224 118.406177,22.6556816 118.406177,19.1688245 C118.406177,15.4542122 120.524092,13.9881306 123.163222,13.9881306 C124.56378,13.9881306 126.12779,14.476702 127.821829,14.5744163 L127.821829,12.8478857 C127.821829,10.6000898 126.844781,9.98037551 124.792247,9.98037551 C123.977918,9.98037551 122.804727,10.208498 121.925017,10.5339673 L121.534198,12.3262531 L119.416282,12.3262531 L119.416282,8.51392653 C121.501507,7.86262041 123.195546,7.34098776 125.280771,7.34098776 C129.64663,7.34098776 131.112569,9.42604898 131.112569,12.6847837 L131.112569,19.8855184 C131.112569,20.3090694 131.177215,20.8957224 131.243331,21.486049 L133.829569,21.8001306 L133.829569,23.3393143 L130.167845,23.8605796 Z" id="Fill-28" fill="#00597C"></path>
                        <path d="M144.001478,23.7955959 L144.001478,21.8078816 L145.988998,21.3523714 L145.988998,12.9775959 C145.988998,10.8605755 144.97926,10.0127388 143.774112,10.0127388 C141.982001,10.0127388 140.678782,11.0229429 139.505957,12.5544122 L139.505957,21.3523714 L141.68852,21.8078816 L141.68852,23.7955959 L133.543764,23.7955959 L133.543764,21.8078816 L136.215217,21.3523714 L136.215217,10.3385755 L133.543764,10.1438816 L133.543764,8.22118776 L137.811551,7.63416735 L139.147462,7.63416735 L139.342504,10.1438816 L139.407885,10.1438816 C140.353344,8.54665714 142.470158,7.27563673 144.718469,7.27563673 C147.227203,7.27563673 149.279738,8.80673878 149.279738,12.5217184 L149.279738,21.3523714 L151.951558,21.8078816 L151.951558,23.7955959 L144.001478,23.7955959 Z" id="Fill-30" fill="#00597C"></path>
                        <g id="Group-34" transform="translate(150.964851, 0.000000)">
                            <mask id="mask-4" fill="white">
                                <use xlink:href="#path-3"></use>
                            </mask>
                            <g id="Clip-33"></g>
                            <path d="M13.1725464,23.7955959 L10.5984304,19.0380857 C9.68639701,17.3769429 8.90475905,15.8458408 8.80668699,15.5192694 L8.74204025,15.5192694 L6.16755694,18.2890653 L6.16755694,21.3523714 L8.6112775,21.7751878 L8.6112775,23.7955959 L0.206098243,23.7955959 L0.206098243,21.8078816 L2.87791898,21.3523714 L2.87791898,3.04049388 L0.206098243,2.84469796 L0.206098243,0.954697959 L4.47388559,0.335718367 L6.16755694,0.335718367 L6.16755694,14.9656776 L6.26599631,14.9656776 C6.55911054,14.5751878 7.60117206,13.3364939 8.6112775,12.196249 L10.6641791,9.91502449 L8.87206837,9.62188163 L8.87206837,7.63416735 L16.5933144,7.63416735 L16.5933144,9.58992245 L14.019933,10.0458 L10.8268979,13.5322898 L15.3554761,21.3523714 L17.9295921,21.8078816 L17.9295921,23.7955959 L13.1725464,23.7955959 Z" id="Fill-32" fill="#00597C" mask="url(#mask-4)"></path>
                        </g>
                    </g>
                </g>
            </g>
        </g>
    </g>
</svg>