<?xml version="1.0" standalone="no"?>
<!DOCTYPE svg PUBLIC "-//W3C//DTD SVG 20010904//EN"
 "http://www.w3.org/TR/2001/REC-SVG-20010904/DTD/svg10.dtd">
<svg version="1.0" xmlns="http://www.w3.org/2000/svg"
 width="1024.000000pt" height="1024.000000pt" viewBox="0 0 1024.000000 1024.000000"
 preserveAspectRatio="xMidYMid meet">

<g transform="translate(0.000000,1024.000000) scale(0.100000,-0.100000)"
fill="#000000" stroke="none">
<path d="M5259 7102 l-186 -2 -94 -127 c-52 -69 -98 -132 -102 -140 -7 -11 32
-13 215 -13 l224 0 92 138 c51 76 92 141 92 145 0 4 -12 6 -27 4 -16 -1 -112
-3 -214 -5z"/>
<path d="M5602 6966 c-51 -74 -92 -137 -92 -140 0 -3 160 -7 355 -8 l354 -3
-159 -240 c-88 -132 -159 -247 -160 -255 0 -8 34 -67 76 -129 l77 -115 20 28
c19 26 634 956 651 984 6 9 -99 12 -511 12 l-519 0 -92 -134z"/>
<path d="M4330 6655 c0 -2 112 -175 249 -382 136 -208 263 -405 281 -438 30
-54 443 -674 489 -734 l19 -24 66 103 c37 56 65 109 62 116 -3 7 -103 161
-222 341 -119 180 -219 335 -222 343 -7 18 -116 189 -207 325 l-68 100 151 3
150 3 86 118 c47 66 86 122 86 125 0 3 -207 6 -460 6 -253 0 -460 -2 -460 -5z"/>
<path d="M4197 6316 c-43 -68 -77 -128 -77 -133 0 -11 382 -583 389 -583 3 1
41 56 83 124 l77 124 -195 293 c-108 162 -197 295 -198 297 -2 1 -37 -54 -79
-122z"/>
<path d="M5630 5927 c-91 -138 -166 -258 -168 -267 -3 -15 126 -212 148 -225
5 -3 84 107 176 244 l166 250 -67 108 c-38 59 -73 115 -79 124 -9 13 -40 -29
-176 -234z"/>
<path d="M2690 3610 l0 -321 58 3 57 3 5 245 c6 282 -3 279 98 25 l68 -170 61
-3 61 -3 30 78 c16 43 49 131 73 196 23 64 46 117 51 117 4 0 8 -110 8 -245
l0 -245 55 0 55 0 0 320 0 320 -87 0 -88 0 -54 -143 c-77 -200 -100 -252 -110
-241 -4 5 -41 93 -81 197 l-73 187 -94 0 -93 0 0 -320z"/>
<path d="M3520 3610 l0 -320 173 0 c94 0 188 5 207 10 45 12 97 65 110 111 23
79 8 159 -36 195 l-26 22 26 38 c20 30 26 51 26 94 0 71 -24 119 -75 147 -37
21 -52 23 -222 23 l-183 0 0 -320z m362 202 c17 -17 17 -95 -1 -115 -11 -14
-34 -17 -132 -17 l-119 0 0 68 c0 38 3 72 7 76 14 13 231 2 245 -12z m8 -262
c14 -14 20 -33 20 -62 0 -77 -23 -88 -169 -88 l-111 0 0 85 0 85 120 0 c107 0
122 -2 140 -20z"/>
<path d="M4157 3924 c-4 -4 -7 -148 -7 -321 l0 -313 55 0 55 0 0 265 0 265
139 0 c158 0 166 -4 164 -73 -3 -62 -19 -71 -128 -75 l-95 -4 0 -49 0 -49 104
0 c102 0 105 -1 126 -27 17 -22 21 -37 17 -66 -9 -68 -26 -77 -144 -77 l-103
0 0 -55 0 -55 113 0 c98 0 117 3 152 23 92 52 122 214 52 285 -24 23 -24 25
-8 56 23 44 22 173 -2 209 -36 55 -64 62 -282 65 -110 2 -204 0 -208 -4z"/>
<path d="M4835 3678 c-4 -139 -5 -284 -3 -323 l3 -70 52 -3 52 -3 3 88 3 88
75 3 75 3 27 -48 c14 -26 40 -67 57 -90 31 -42 32 -43 91 -43 34 0 60 4 60 10
0 6 -25 44 -55 85 -30 40 -55 78 -55 82 0 4 14 16 30 25 58 33 70 69 70 209 0
114 -2 129 -23 160 -42 63 -79 73 -278 77 l-177 4 -7 -254z m353 125 c21 -18
25 -48 23 -160 -2 -66 -15 -73 -147 -73 l-114 0 0 125 0 125 109 0 c89 0 113
-3 129 -17z"/>
<path d="M5470 3924 c0 -4 54 -93 120 -199 l120 -193 0 -122 0 -121 38 3 37 3
3 120 3 119 69 111 c101 164 160 265 160 276 0 6 -17 9 -37 7 -37 -3 -39 -5
-132 -161 -82 -136 -97 -155 -109 -143 -8 8 -54 79 -102 158 l-87 143 -41 3
c-23 2 -42 0 -42 -4z"/>
<path d="M6212 3613 l3 -318 194 3 c216 3 246 10 280 66 45 76 38 161 -20 219
l-38 39 23 23 c50 50 59 159 19 213 -48 64 -57 67 -269 70 l-194 4 2 -319z
m378 217 c25 -25 34 -61 26 -105 -11 -58 -32 -65 -188 -65 l-138 0 0 95 0 95
140 0 c126 0 142 -2 160 -20z m12 -279 c29 -26 33 -35 33 -81 0 -44 -4 -55
-28 -76 -27 -23 -34 -24 -173 -24 l-144 0 0 105 0 105 140 0 140 0 32 -29z"/>
<path d="M6932 3608 l3 -323 37 -3 38 -3 2 268 3 268 93 -125 c50 -69 133
-180 182 -247 115 -155 113 -153 166 -153 l44 0 0 320 0 320 -35 0 -35 0 0
-265 c0 -146 -4 -265 -8 -265 -7 0 -328 428 -376 503 -16 23 -25 27 -67 27
l-49 0 2 -322z"/>
<path d="M4058 3070 c-70 -21 -108 -73 -108 -147 0 -41 5 -58 27 -84 48 -56
127 -74 198 -45 36 15 44 36 22 54 -8 7 -18 6 -31 -4 -23 -16 -89 -19 -117 -4
-53 29 -61 116 -13 161 21 19 35 24 77 23 29 -1 61 -3 72 -5 34 -6 23 24 -15
43 -37 19 -68 21 -112 8z"/>
<path d="M4683 3069 c-37 -11 -73 -52 -73 -84 0 -31 26 -50 100 -73 73 -22 94
-43 68 -68 -18 -19 -78 -21 -121 -5 -39 15 -47 14 -47 -8 0 -40 136 -63 193
-32 35 19 53 64 39 96 -13 29 -49 48 -119 64 -69 17 -78 42 -25 70 18 9 36 10
73 2 65 -14 69 -14 69 4 0 28 -102 51 -157 34z"/>
<path d="M4980 3063 c-43 -22 -64 -61 -51 -95 9 -25 55 -50 127 -68 45 -11 62
-34 42 -57 -12 -15 -109 -14 -155 2 -19 6 -23 4 -23 -12 0 -38 102 -64 166
-43 54 17 74 38 74 75 0 42 -22 60 -106 88 -56 18 -70 26 -72 44 -5 34 38 47
101 32 59 -14 83 0 45 25 -39 26 -108 30 -148 9z"/>
<path d="M5293 3065 c-35 -15 -53 -41 -53 -78 0 -34 26 -54 106 -80 61 -19 69
-25 69 -47 0 -35 -58 -48 -123 -27 -32 11 -50 13 -57 6 -16 -17 30 -46 82 -53
86 -12 153 22 153 76 0 50 -16 66 -90 89 -87 26 -104 44 -70 71 24 20 51 20
118 2 17 -5 22 -2 22 13 0 40 -93 56 -157 28z"/>
<path d="M6983 3007 c-40 -41 -75 -71 -78 -69 -3 3 -5 34 -5 69 0 61 -1 63
-25 63 l-25 0 0 -140 0 -140 25 0 c22 0 25 4 25 33 0 30 32 77 52 77 3 0 25
-25 48 -55 37 -48 47 -55 77 -55 l34 0 -61 75 -62 74 20 28 c11 15 36 43 56
62 19 19 33 38 30 43 -13 20 -43 3 -111 -65z"/>
<path d="M3320 2930 c-40 -80 -65 -142 -60 -145 18 -11 50 6 65 36 15 28 18
29 89 29 72 0 74 -1 86 -30 10 -24 19 -30 42 -30 16 0 28 4 26 8 -1 5 -30 68
-62 140 -56 124 -61 132 -88 132 -26 0 -33 -9 -98 -140z m139 -27 c1 -9 -15
-13 -49 -13 -27 0 -50 2 -50 5 0 2 12 30 26 62 l26 58 24 -50 c12 -27 23 -56
23 -62z"/>
<path d="M3692 3050 c-100 -61 -94 -203 11 -250 51 -23 96 -25 142 -6 24 10
35 22 35 35 0 24 -12 26 -42 10 -29 -16 -80 -14 -116 5 -63 33 -62 126 3 166
39 24 66 25 106 5 31 -17 49 -13 49 10 0 45 -127 62 -188 25z"/>
<path d="M4310 2998 c0 -40 -3 -103 -7 -140 l-6 -68 117 0 c109 0 116 1 116
20 0 18 -7 20 -86 20 l-85 0 3 38 3 37 62 3 c38 2 66 8 73 17 16 19 3 24 -75
27 l-60 3 -3 38 -3 37 85 0 c79 0 86 2 86 20 0 19 -7 20 -110 20 l-110 0 0
-72z"/>
<path d="M5760 2930 l0 -140 101 0 c57 0 110 5 122 12 50 26 60 69 26 111 -16
21 -18 31 -10 46 18 33 12 58 -20 85 -28 24 -38 26 -125 26 l-94 0 0 -140z
m184 78 c20 -33 -4 -53 -68 -56 l-56 -3 0 41 0 41 56 -3 c41 -2 60 -8 68 -20z
m20 -120 c21 -35 -4 -53 -78 -56 l-66 -3 0 41 0 41 66 -3 c51 -2 70 -7 78 -20z"/>
<path d="M6190 3044 c-6 -14 -33 -76 -60 -138 -28 -62 -50 -116 -50 -119 0 -4
10 -7 23 -7 17 0 28 10 40 35 l17 35 80 0 c81 0 81 0 91 -30 9 -24 17 -30 41
-30 16 0 28 4 26 8 -1 5 -30 68 -62 140 l-59 132 -39 0 c-32 0 -40 -4 -48 -26z
m80 -84 c13 -27 21 -52 18 -56 -3 -3 -28 -4 -55 -2 l-50 3 24 53 c12 28 26 52
31 52 5 0 19 -22 32 -50z"/>
<path d="M6480 2930 l0 -140 25 0 c25 0 25 2 25 78 0 42 4 83 9 90 6 10 29
-11 82 -76 119 -145 130 -140 128 49 l-1 139 -29 0 -29 0 0 -90 c0 -49 -3 -90
-7 -89 -5 0 -42 40 -83 89 -53 63 -82 90 -97 90 -23 0 -23 -1 -23 -140z"/>
</g>
</svg>
