<?xml version="1.0" encoding="UTF-8"?>
<svg width="48px" height="48px" viewBox="0 0 48 48" version="1.1" xmlns="http://www.w3.org/2000/svg" xmlns:xlink="http://www.w3.org/1999/xlink">
    <!-- Generator: Sketch 59.1 (86144) - https://sketch.com -->
    <title>logo-mark/primary</title>
    <desc>Created with Sketch.</desc>
    <g id="Home" stroke="none" stroke-width="1" fill="none" fill-rule="evenodd">
        <g id="Desktop---Homepage----1920" transform="translate(-340.000000, -4934.000000)" fill="#00587C">
            <g id="footer" transform="translate(0.000000, 4861.000000)">
                <g id="logo-mark/primary" transform="translate(340.000000, 73.000000)">
                    <g id="Group">
                        <path d="M39.2966788,3.99680289e-13 L39.2966788,7.74367347 L31.6312242,15.4873469 L31.6310303,7.74382041 L23.9660606,15.4870041 L16.3006061,7.74382041 L16.3003152,15.4873469 L8.63486061,7.74367347 L8.63486061,3.99680289e-13 L16.3003152,3.99680289e-13 L23.9660606,7.74382041 L31.6310303,0.000636734694 L39.2966788,3.99680289e-13 Z" id="Combined-Shape"></path>
                        <path d="M7.6649697,23.7206204 L-1.10134124e-13,15.9774367 L-1.10134124e-13,8.23361633 L7.6649697,8.23361633 L15.3309091,15.9768 L7.6649697,15.9774367 L15.3309091,23.7206204 L7.6649697,31.4642939 L15.3306182,31.4641959 L7.66516364,39.2073796 L0.000193939394,39.2073796 L0.000193939394,31.4641959 L7.6649697,23.7206204 Z" id="Combined-Shape"></path>
                        <path d="M47.9314424,8.23351837 L47.9314424,15.9771918 L40.2660364,23.7203755 L47.9295333,31.4635184 L47.9314424,31.4643918 L47.9314424,39.2075755 L40.2659879,39.2075755 L32.6005333,31.4643918 L40.2645333,31.4635184 L32.6005818,23.7203755 L40.2660364,15.9771918 L32.6005333,15.9771918 L40.2659879,8.23351837 L47.9314424,8.23351837 Z" id="Combined-Shape"></path>
                        <path d="M23.9660121,40.1871673 L16.3000727,47.9308408 L8.63505455,47.9308408 L8.63505455,40.1876571 L16.3005091,32.4439837 L16.3000727,40.1871673 L23.9660121,32.4439837 L31.6309818,40.1871673 L31.6310303,32.4439837 L39.2969697,40.1871673 L39.2969697,47.9308408 L31.6310303,47.9308408 L23.9660121,40.1871673 Z" id="Combined-Shape"></path>
                    </g>
                </g>
            </g>
        </g>
    </g>
</svg>